<svg xmlns="http://www.w3.org/2000/svg" viewBox="0 0 26 26"><defs><style>.cls-1{fill:#367bfb}</style></defs><path class="cls-1" d="M25.72 5.08c-.36-1.15-2-1.15-3.25-1a25.38 25.38 0 0 0-3.68 1 29 29 0 0 0-11.2 7.71C5.78 8 1.86 5.68.54 7.13c-1 1.14.24 2.29 1.75 4.09 1.8 2.23 2.71 4.46 3.61 8.5a7.74 7.74 0 0 0 5.78 5.78c.24 0 .3-.06.3-.06s-.12-.06-.18-.06c-2.35-.9-3.37-3.92-2.77-7a9 9 0 0 1 2.47-4.58 16.6 16.6 0 0 1 2.11-1.74 31.13 31.13 0 0 1 7.59-3.67c.42-.12 1.69-.6 2.05-.72 1.51-.48 3.01-.97 2.47-2.59z"/><path class="cls-1" d="M21.74 18.27a13.24 13.24 0 0 1-4.82 3.55c-3.79 1.75-5-.36-5.18-.72a3.51 3.51 0 0 1-.18-2.35 5.25 5.25 0 0 1 2.53-3c2.05-1.08 3.2-.18 3.2-.18h.06c-.67.18-5.37 1.26-5.31 4.22C12.1 22.91 17 22 20.42 18a3.6 3.6 0 0 0-.06-5.24 4.32 4.32 0 0 0-4.52-.76 9 9 0 0 0-5.6 5.6c-1.21 3.13 0 6.38 2.41 7.47a7.36 7.36 0 0 0 6.8-1.27S24 21 22.1 18.63c-.1 0-.24-.24-.36-.36zM9 4.9a.83.83 0 0 0 .85-.85V1.22A.83.83 0 0 0 9 .38a.82.82 0 0 0-.84.84v2.83A.79.79 0 0 0 9 4.9zM4.33 5.68a.87.87 0 0 0 .73.32.68.68 0 0 0 .48-.18 1.08 1.08 0 0 0 .36-.54.83.83 0 0 0-.12-.66l-.9-1.33A.87.87 0 0 0 4.15 3a.68.68 0 0 0-.48.18.87.87 0 0 0-.36.54.86.86 0 0 0 .12.67zM12.35 5.92a.68.68 0 0 0 .48.18.86.86 0 0 0 .72-.36l1-1.38a.83.83 0 0 0 .12-.67.87.87 0 0 0-.36-.54.68.68 0 0 0-.52-.15.86.86 0 0 0-.72.36l-1 1.39a.9.9 0 0 0-.12.6 1.26 1.26 0 0 0 .4.57z"/></svg>